<svg width="32" height="32" viewBox="0 0 32 32" fill="none" xmlns="http://www.w3.org/2000/svg">
<g filter="url(#filter0_b_1002_24)">
<rect x="32" y="31.0303" width="32" height="31.0303" rx="5" transform="rotate(-180 32 31.0303)" fill="#EDEAEA"/>
</g>
<mask id="mask0_1002_24" style="mask-type:luminance" maskUnits="userSpaceOnUse" x="0" y="2" width="32" height="29">
<path d="M32 30.0303L32 2.03027L0 2.03027L-2.44784e-06 30.0303L32 30.0303Z" fill="white"/>
</mask>
<g mask="url(#mask0_1002_24)">
<path d="M6.55943 25.4326L6.55943 7.31474L10.9175 7.31474L10.9175 14.976L20.7728 14.976L20.7728 7.31474L25.1309 7.31474L25.1309 25.4326L20.7728 25.4326L20.7728 16.6843L10.9175 16.6843L10.9175 25.4326L6.55943 25.4326Z" fill="#FDBB30"/>
</g>
<path d="M12.27 27.0654L2.03001 4.91585L7.33287 4.91585L15.8052 24.534L24.2167 4.91586L29.5195 4.91586L19.4624 27.0654L12.27 27.0654Z" fill="#A20A35"/>
<defs>
<filter id="filter0_b_1002_24" x="-4" y="-4" width="40" height="39.0303" filterUnits="userSpaceOnUse" color-interpolation-filters="sRGB">
<feFlood flood-opacity="0" result="BackgroundImageFix"/>
<feGaussianBlur in="BackgroundImageFix" stdDeviation="2"/>
<feComposite in2="SourceAlpha" operator="in" result="effect1_backgroundBlur_1002_24"/>
<feBlend mode="normal" in="SourceGraphic" in2="effect1_backgroundBlur_1002_24" result="shape"/>
</filter>
</defs>
</svg>
